<?xml version="1.0" encoding="UTF-8" standalone="no"?>
<!-- Created with Inkscape (http://www.inkscape.org/) -->

<svg
   version="1.1"
   id="svg2"
   xml:space="preserve"
   width="158.73334"
   height="79.373337"
   viewBox="0 0 158.73334 79.373337"
   sodipodi:docname="420_1_TNO_wit.eps"
   xmlns:inkscape="http://www.inkscape.org/namespaces/inkscape"
   xmlns:sodipodi="http://sodipodi.sourceforge.net/DTD/sodipodi-0.dtd"
   xmlns="http://www.w3.org/2000/svg"
   xmlns:svg="http://www.w3.org/2000/svg"><defs
     id="defs6" /><sodipodi:namedview
     id="namedview4"
     pagecolor="#ffffff"
     bordercolor="#666666"
     borderopacity="1.0"
     inkscape:pageshadow="2"
     inkscape:pageopacity="0.0"
     inkscape:pagecheckerboard="0" /><g
     id="g8"
     inkscape:groupmode="layer"
     inkscape:label="ink_ext_XXXXXX"
     transform="matrix(1.3333333,0,0,-1.3333333,0,79.373333)"><g
       id="g10"
       transform="scale(0.1)"><path
         d="m 876.387,452.484 c -73.242,0 -130.996,-50.214 -142.403,-119.394 v 83.769 c 0,21.559 -9.257,30.817 -30.82,30.817 H 630.547 V 338.648 l -62.086,84.348 c -13.5,17.906 -26.828,24.68 -49.262,24.68 H 198.422 v -74.274 c 0,-21.23 9.105,-30.351 30.34,-30.351 h 48 V 198.945 c 0,-21.523 9.238,-30.8 30.82,-30.8 h 78.57 v 174.906 h 66.297 V 198.945 c 0,-21.523 9.27,-30.8 30.821,-30.8 h 72.632 v 109.023 l 61.864,-84.355 c 13.504,-17.911 26.836,-24.668 49.285,-24.668 h 66.933 v 113.632 c 11.25,-70 67.539,-118.418 142.403,-118.418 81.875,0 144.593,62.696 144.593,144.555 0,83.867 -60.714,144.57 -144.593,144.57 m 0,-189.918 c -25.039,0 -45.352,20.293 -45.352,45.348 0,25.047 20.313,45.363 45.352,45.363 25.051,0 45.351,-20.316 45.351,-45.363 0,-25.055 -20.3,-45.348 -45.351,-45.348"
         style="fill:#ffffff;fill-opacity:1;fill-rule:nonzero;stroke:none"
         id="path12" /></g></g></svg>
